<mxfile host="app.diagrams.net" modified="2024-04-24T03:44:19.264Z" agent="Mozilla/5.0 (Macintosh; Intel Mac OS X 10_15_7) AppleWebKit/537.36 (KHTML, like Gecko) Chrome/123.0.0.0 Safari/537.36" version="21.3.0" etag="wGruDe4CbVXGLxDDOpSq" type="github">
  <diagram name="Page-1" id="GA9JAVkB00zqXfAv5tW7">
    <mxGraphModel>
      <root>
        <mxCell id="0" />
        <mxCell id="1" parent="0" />
      </root>
    </mxGraphModel>
  </diagram>
</mxfile>
